PathFileType	4	(X/Y/Z)	/tmp/tmpjnq7zxqp/Me/MarkerData/squat04_segment_0.trc
DataRate	CameraRate	NumFrames	NumMarkers	Units	OrigDataRate	OrigDataStartFrame	OrigNumFrames
100.206	100.206	8	38	m	100.206	243	487
Frame#	Time	C7			CLAV			LANK			LASI			LBHD			LELB			LFHD			LFIN			LFRM			LHEE			LKNE			LPSI			LSHO			LTHI			LTIB			LTOE			LUPA			LWRA			LWRB			RANK			RBAK			RBHD			RELB			RFHD			RFIN			RFRM			RHEE			RKNE			RPSI			RSHO			RTHI			RTIB			RTOE			RUPA			RWRA			RWRB			STRN			T10		
		X1	Y1	Z1	X2	Y2	Z2	X3	Y3	Z3	X4	Y4	Z4	X5	Y5	Z5	X6	Y6	Z6	X7	Y7	Z7	X8	Y8	Z8	X9	Y9	Z9	X10	Y10	Z10	X11	Y11	Z11	X12	Y12	Z12	X13	Y13	Z13	X14	Y14	Z14	X15	Y15	Z15	X16	Y16	Z16	X17	Y17	Z17	X18	Y18	Z18	X19	Y19	Z19	X20	Y20	Z20	X21	Y21	Z21	X22	Y22	Z22	X23	Y23	Z23	X24	Y24	Z24	X25	Y25	Z25	X26	Y26	Z26	X27	Y27	Z27	X28	Y28	Z28	X29	Y29	Z29	X30	Y30	Z30	X31	Y31	Z31	X32	Y32	Z32	X33	Y33	Z33	X34	Y34	Z34	X35	Y35	Z35	X36	Y36	Z36	X37	Y37	Z37	X38	Y38	Z38

244	2.42501	-0.215325	0.890774	0.00963699	-0.366476	0.781594	0.0129572	-0.216162	0.095359	0.221092	-0.0938878	0.478795	0.183605	-0.311011	1.01172	0.0950719	-0.534222	0.617765	0.271596	-0.427902	1.06672	0.0729103	-0.611531	0.785201	0.05345	-0.616515	0.645551	0.141477	-0.145444	0.0619647	0.164531	-0.432452	0.415575	0.291893	0.0262111	0.493489	0.0593662	-0.309238	0.867637	0.183106	-0.251531	0.428299	0.266528	-0.286298	0.218026	0.258759	-0.38261	0.0691417	0.189253	-0.409664	0.736697	0.268103	-0.58004	0.69816	0.0466062	-0.648684	0.703657	0.0729881	-0.209977	0.0999579	-0.191527	-0.164588	0.775417	-0.122928	-0.297137	1.01141	-0.0529906	-0.492757	0.605347	-0.268513	-0.412823	1.05716	-0.0558775	-0.616475	0.788355	-0.0680191	-0.557006	0.618169	-0.209242	-0.15094	0.0585606	-0.113647	-0.399632	0.426552	-0.273028	0.025496	0.489553	0.00521513	-0.316238	0.856185	-0.155696	-0.121522	0.459324	-0.166885	-0.350996	0.312463	-0.279019	-0.372443	0.0643247	-0.190274	-0.430207	0.672149	-0.253386	-0.569394	0.700027	-0.057147	-0.638013	0.699089	-0.0826466	-0.356282	0.617594	0.022754	-0.103442	0.704014	0.0180497
245	2.43499	-0.215429	0.891796	0.00964431	-0.366465	0.782461	0.013045	-0.216153	0.095364	0.221029	-0.0938873	0.479924	0.183868	-0.310934	1.01271	0.095198	-0.533853	0.618403	0.271741	-0.42794	1.0677	0.0730357	-0.611348	0.785637	0.0535808	-0.616204	0.64601	0.141591	-0.145465	0.0619675	0.164512	-0.432479	0.415688	0.291374	0.0263502	0.494727	0.0596315	-0.309246	0.868608	0.183173	-0.251745	0.428849	0.266446	-0.286202	0.218105	0.258301	-0.38261	0.0691551	0.189253	-0.40944	0.737468	0.268236	-0.579775	0.69857	0.0466681	-0.648421	0.704066	0.0730491	-0.209945	0.0999669	-0.191535	-0.164621	0.776371	-0.122934	-0.297283	1.01233	-0.0529529	-0.492611	0.605916	-0.26838	-0.412952	1.05809	-0.0557008	-0.616319	0.788639	-0.0678109	-0.556835	0.618628	-0.209025	-0.150963	0.0585596	-0.11367	-0.399312	0.426737	-0.273109	0.0255917	0.490763	0.00541955	-0.316386	0.857023	-0.155663	-0.121465	0.460215	-0.166735	-0.350631	0.312624	-0.278981	-0.372409	0.0643846	-0.190379	-0.430074	0.672763	-0.253365	-0.569206	0.700343	-0.0567787	-0.637816	0.699416	-0.0822969	-0.356276	0.618478	0.022999	-0.103418	0.70504	0.0180133
246	2.44497	-0.21551	0.893001	0.00965974	-0.366379	0.783417	0.0130829	-0.216146	0.0953566	0.220991	-0.0937893	0.481034	0.183892	-0.310922	1.01381	0.09523	-0.533454	0.619102	0.27191	-0.42798	1.06883	0.0731508	-0.611149	0.7861	0.0537473	-0.615842	0.646491	0.141718	-0.14547	0.0619485	0.164506	-0.432482	0.415729	0.290835	0.0264789	0.496143	0.0599247	-0.309306	0.869726	0.18322	-0.251951	0.429442	0.26635	-0.286178	0.218157	0.258024	-0.382602	0.0691622	0.189242	-0.409093	0.738296	0.268287	-0.579496	0.698982	0.0467539	-0.648145	0.704477	0.073134	-0.209909	0.0999643	-0.191538	-0.164651	0.777528	-0.12293	-0.297426	1.01341	-0.0529696	-0.492425	0.606626	-0.268271	-0.413186	1.05921	-0.0556422	-0.616244	0.789055	-0.0676346	-0.5566	0.619177	-0.208845	-0.151015	0.0585655	-0.113715	-0.398958	0.426917	-0.2732	0.0257092	0.492146	0.00566745	-0.316518	0.858007	-0.155641	-0.121395	0.461181	-0.166588	-0.350246	0.312811	-0.27897	-0.372359	0.0644223	-0.190507	-0.429897	0.673497	-0.253333	-0.569036	0.700747	-0.0564622	-0.637639	0.69983	-0.0819989	-0.356245	0.619517	0.0231799	-0.103398	0.706257	0.018021
247	2.45495	-0.215635	0.894352	0.00969374	-0.366374	0.784595	0.0131029	-0.21614	0.0953367	0.220959	-0.0936835	0.482332	0.183971	-0.31098	1.01508	0.0952119	-0.533022	0.61988	0.2721	-0.428028	1.07009	0.0732403	-0.61097	0.786563	0.053956	-0.61544	0.64701	0.141867	-0.145447	0.061942	0.164535	-0.432734	0.415686	0.290533	0.0265943	0.497739	0.0602065	-0.3094	0.870998	0.183255	-0.252247	0.430058	0.266243	-0.286241	0.218188	0.257896	-0.382595	0.0691557	0.189221	-0.408899	0.739314	0.268454	-0.579222	0.699421	0.046874	-0.647873	0.704915	0.0732531	-0.209846	0.0999597	-0.191552	-0.164682	0.778881	-0.12292	-0.297592	1.01468	-0.0530186	-0.492199	0.60743	-0.268127	-0.413412	1.06047	-0.0556142	-0.616077	0.78953	-0.0674099	-0.55628	0.619857	-0.208697	-0.151029	0.058579	-0.113734	-0.398648	0.427145	-0.273318	0.0258	0.49368	0.00591408	-0.316616	0.859144	-0.155638	-0.121319	0.46225	-0.166427	-0.349841	0.31301	-0.278965	-0.372279	0.0644711	-0.190634	-0.42969	0.674365	-0.253305	-0.568856	0.701194	-0.0561881	-0.63745	0.700288	-0.0817434	-0.356243	0.62069	0.0232542	-0.103364	0.707677	0.0180921
248	2.46493	-0.215766	0.895873	0.00970833	-0.36641	0.786032	0.0131938	-0.21615	0.0953265	0.220947	-0.0936075	0.483838	0.184169	-0.311049	1.01653	0.0952077	-0.532541	0.620756	0.272312	-0.428103	1.07152	0.0733023	-0.610838	0.787036	0.0541823	-0.615016	0.647581	0.142042	-0.14543	0.0619414	0.164564	-0.433199	0.415565	0.290499	0.026643	0.499503	0.060472	-0.309516	0.872427	0.183301	-0.252616	0.430716	0.266233	-0.286411	0.218186	0.257829	-0.382606	0.0691189	0.189176	-0.408577	0.740416	0.268493	-0.57896	0.699889	0.047023	-0.647614	0.705382	0.0734013	-0.209732	0.0999632	-0.191589	-0.164695	0.780385	-0.122913	-0.297769	1.01608	-0.053097	-0.49191	0.608369	-0.268001	-0.413601	1.06187	-0.0555823	-0.615852	0.790063	-0.0671424	-0.555945	0.620669	-0.20857	-0.151007	0.0585768	-0.113727	-0.398326	0.427336	-0.273394	0.0258841	0.49542	0.00617357	-0.316698	0.860432	-0.155633	-0.121257	0.463434	-0.166265	-0.349436	0.313202	-0.27893	-0.372175	0.0645539	-0.190778	-0.429448	0.675384	-0.253273	-0.568721	0.701787	-0.0559693	-0.637306	0.700891	-0.0815431	-0.356238	0.622024	0.0232887	-0.103363	0.709268	0.0182175
249	2.47491	-0.215877	0.897549	0.00970783	-0.366601	0.78786	0.0134206	-0.216159	0.0953413	0.220949	-0.0935814	0.485478	0.184371	-0.311135	1.01815	0.095135	-0.53203	0.621757	0.272551	-0.428214	1.07311	0.0733075	-0.610734	0.78758	0.0544178	-0.614572	0.648236	0.142248	-0.145421	0.061939	0.164581	-0.433626	0.415488	0.290294	0.0266783	0.501439	0.0607391	-0.309648	0.874016	0.183359	-0.25298	0.431402	0.266258	-0.286655	0.218138	0.257753	-0.382627	0.0690745	0.189128	-0.408299	0.741697	0.268571	-0.578713	0.700395	0.04719	-0.647369	0.705888	0.0735674	-0.209615	0.099952	-0.191612	-0.164684	0.782022	-0.12285	-0.297958	1.01764	-0.0531598	-0.491516	0.609464	-0.267938	-0.413785	1.06339	-0.0555893	-0.61579	0.790724	-0.066921	-0.555584	0.621614	-0.208479	-0.151002	0.0585543	-0.113723	-0.398063	0.427574	-0.273464	0.0259467	0.497354	0.00643597	-0.316766	0.861899	-0.155612	-0.121196	0.46473	-0.166093	-0.349041	0.313395	-0.278884	-0.372075	0.0646364	-0.190946	-0.429198	0.676575	-0.253239	-0.568547	0.702437	-0.0558053	-0.637123	0.701551	-0.0813977	-0.356192	0.623527	0.0233004	-0.103325	0.711034	0.0183458
250	2.48489	-0.216039	0.899334	0.00973666	-0.366729	0.7897	0.0135494	-0.216147	0.0953519	0.220946	-0.0935692	0.487231	0.184559	-0.311211	1.01995	0.0950657	-0.531474	0.622896	0.272845	-0.428344	1.07485	0.0732636	-0.610661	0.788257	0.0546611	-0.614111	0.648989	0.142493	-0.145405	0.0619328	0.164596	-0.433991	0.41541	0.289984	0.0267885	0.503553	0.0610092	-0.309784	0.875766	0.183424	-0.253248	0.43218	0.26622	-0.286838	0.218091	0.257628	-0.382615	0.0690698	0.18911	-0.408078	0.743173	0.268717	-0.578492	0.700964	0.0473995	-0.64715	0.706456	0.073776	-0.209525	0.0999516	-0.191621	-0.164656	0.783818	-0.12278	-0.298138	1.01936	-0.0531945	-0.491078	0.610711	-0.267874	-0.413978	1.06505	-0.0556162	-0.615756	0.791428	-0.0665878	-0.555205	0.622685	-0.208429	-0.151078	0.058494	-0.113731	-0.397784	0.42782	-0.273509	0.0259554	0.499427	0.0066623	-0.316817	0.863525	-0.155593	-0.121129	0.466121	-0.165957	-0.348659	0.313603	-0.278833	-0.371993	0.0646986	-0.191096	-0.428939	0.677924	-0.253203	-0.568367	0.703139	-0.0556866	-0.636935	0.702264	-0.0812975	-0.356122	0.6252	0.0233027	-0.103269	0.71295	0.0184749
251	2.49487	-0.216253	0.901234	0.00979918	-0.366747	0.791532	0.0135869	-0.216139	0.0953453	0.220942	-0.0935597	0.489128	0.184738	-0.311316	1.02191	0.0950461	-0.530881	0.624172	0.273131	-0.4285	1.07675	0.0731834	-0.61068	0.789019	0.0548841	-0.613649	0.649849	0.142767	-0.145395	0.0619023	0.164612	-0.434359	0.415306	0.289707	0.0269247	0.505844	0.0612558	-0.309905	0.877667	0.183511	-0.25348	0.433029	0.26611	-0.286952	0.218089	0.257498	-0.382594	0.0690694	0.189102	-0.40794	0.744863	0.268964	-0.578287	0.701655	0.047648	-0.646948	0.707146	0.0740236	-0.209471	0.099949	-0.191605	-0.164603	0.785797	-0.122671	-0.298252	1.02117	-0.053167	-0.490656	0.612143	-0.26787	-0.414156	1.06687	-0.0556719	-0.615832	0.792253	-0.0663231	-0.554808	0.623874	-0.208439	-0.151142	0.0584537	-0.113719	-0.397491	0.428062	-0.273552	0.0259656	0.50165	0.00686876	-0.316868	0.865319	-0.155559	-0.121047	0.467615	-0.165808	-0.348344	0.313825	-0.278804	-0.371914	0.0647341	-0.191225	-0.428665	0.679438	-0.253154	-0.568274	0.703961	-0.0555975	-0.636834	0.703096	-0.0812269	-0.356013	0.627014	0.0232799	-0.10322	0.715011	0.0185983
